<svg xmlns="http://www.w3.org/2000/svg" width="251" height="251" viewBox="0 0 251 251" fill="none">
  <path d="M67.7621 14.0332C50.2737 23.1263 35.0153 36.3296 23.5257 52.3457C12.0361 68.3619 4.48055 86.8592 1.47119 106.339L125.5 125.5L67.7621 14.0332Z" fill="#BCDBDF"/>
  <path d="M1.77667 104.458C-2.37547 128.871 0.787777 153.967 10.8682 176.586L125.5 125.5L1.77667 104.458Z" fill="#40A8C4"/>
  <path d="M66.9603 14.4174C89.4079 2.79734 114.151 -2.06761 139.294 0.845757C164.437 3.75912 188.119 14.1066 207.271 30.5469C226.423 46.9872 240.161 68.7622 246.705 93.0496C253.249 117.337 252.297 143.017 243.973 166.76C235.648 190.504 220.335 211.217 200.018 226.214C179.701 241.211 155.316 249.8 130.026 250.869C104.735 251.938 79.7047 245.437 58.1782 232.209C36.6517 218.981 21.5525 199.365 11.2271 176.41L125.5 125.5L66.9603 14.4174Z" fill="#235784"/>
</svg>