<svg xmlns="http://www.w3.org/2000/svg" width="85" height="85" viewBox="0 0 85 85" fill="none">
  <path d="M85 42.5C85 65.9721 65.9721 85 42.5 85C19.0279 85 0 65.9721 0 42.5C0 19.0279 19.0279 0 42.5 0C65.9721 0 85 19.0279 85 42.5ZM13.7942 42.5C13.7942 58.3538 26.6462 71.2058 42.5 71.2058C58.3538 71.2058 71.2058 58.3538 71.2058 42.5C71.2058 26.6462 58.3538 13.7942 42.5 13.7942C26.6462 13.7942 13.7942 26.6462 13.7942 42.5Z" fill="#95D4FE"/>
  <path d="M42.5 6.89709C42.5 3.08793 45.6079 -0.057074 49.367 0.558412C55.217 1.51625 60.8282 3.69187 65.826 6.97328C72.755 11.5227 78.2023 17.999 81.4975 25.6048C84.7926 33.2107 85.7917 41.6141 84.3717 49.7806C82.9518 57.947 79.1747 65.52 73.5056 71.5672C67.8365 77.6144 60.5228 81.8718 52.4648 83.8153C44.4069 85.7588 35.9566 85.3035 28.1541 82.5056C20.3516 79.7076 13.5376 74.6891 8.55098 68.0678C4.9542 63.292 2.42136 57.8327 1.08836 52.0566C0.231815 48.345 3.16992 45.0408 6.97116 44.7953C10.7724 44.5497 13.9741 47.4807 15.1172 51.1143C16.0929 54.2159 17.5936 57.1453 19.5698 59.7693C22.9379 64.2415 27.5403 67.6312 32.8103 69.521C38.0804 71.4108 43.788 71.7183 49.2306 70.4056C54.6731 69.0929 59.613 66.2173 63.4421 62.1329C67.2712 58.0484 69.8224 52.9334 70.7815 47.4175C71.7406 41.9017 71.0657 36.2257 68.8401 31.0885C66.6144 25.9512 62.9351 21.577 58.2551 18.5042C55.5092 16.7013 52.4891 15.3926 49.331 14.6188C45.6313 13.7123 42.5 10.7063 42.5 6.89709Z" fill="#0280D4"/>
</svg>